<?xml version="1.0" encoding="utf-8"?>
<svg version="1.1" id="Layer_1" xmlns="http://www.w3.org/2000/svg" xmlns:xlink="http://www.w3.org/1999/xlink" x="0px" y="0px" width="100%" height="100%" viewBox="0 0 122.879 117.188" enable-background="new 0 0 122.879 117.188" xml:space="preserve">
    <g transform="scale(0.90) translate(6.4, 5.1)">
        <path d="M64.395,1.969l15.713,36.79l39.853,3.575c1.759,0.152,3.06,1.701,2.907,3.459c-0.073,0.857-0.479,1.604-1.079,2.129l0.002,0.001L91.641,74.25l8.917,39.021c0.395,1.723-0.683,3.439-2.406,3.834c-0.883,0.203-1.763,0.018-2.466-0.441L61.441,96.191L27.087,116.73c-1.516,0.906-3.48,0.412-4.387-1.104c-0.441-0.736-0.55-1.58-0.373-2.355h-0.003l8.918-39.021L1.092,47.924c-1.329-1.163-1.463-3.183-0.301-4.512c0.591-0.676,1.405-1.042,2.235-1.087l39.748-3.566l15.721-36.81c0.692-1.627,2.572-2.384,4.199-1.692C63.494,0.597,64.084,1.225,64.395,1.969L64.395,1.969z" 
              fill="none"
              stroke="black" 
              stroke-width="7" 
              stroke-linejoin="round" 
              stroke-linecap="round"
        />
    </g>
</svg>
